<?xml version="1.0" encoding="UTF-8"?>
<svg id="Livello_1" xmlns="http://www.w3.org/2000/svg" version="1.1" viewBox="0 0 2041.1 799.2">
  <!-- Generator: Adobe Illustrator 29.0.1, SVG Export Plug-In . SVG Version: 2.1.0 Build 192)  -->
  <defs>
    <style>
      .st0 {
        fill: #a88aff;
      }

      .st1 {
        fill: #9d9d9c;
      }

      .st2 {
        fill: #333;
      }
    </style>
  </defs>
  <g>
    <g>
      <path class="st0" d="M259,384.2c-25.4,10.5-41.2,34.2-41.2,61.7v113.6h44.5v-113.6c0-13.8,10.5-19.2,13.7-20.5,3.2-1.3,14.5-4.9,24.2,4.8l80.6,80.6,31.5-31.5-80.6-80.6c-19.4-19.4-47.3-25-72.7-14.5"/>
      <path class="st0" d="M195.2,295.1c8.7,0,17.5-1.7,26-5.3,25.4-10.5,41.2-34.2,41.2-61.7v-113.6h-44.5v113.6c0,13.8-10.5,19.2-13.7,20.5-3.2,1.3-14.5,4.9-24.2-4.8l-80.6-80.6-31.5,31.5,80.6,80.6c12.9,12.9,29.6,19.7,46.8,19.7"/>
      <path class="st0" d="M131.2,314.7H17.6v44.5h113.6c13.8,0,19.2,10.5,20.5,13.7,1.3,3.2,4.9,14.5-4.8,24.2l-80.6,80.6,31.5,31.5,80.6-80.6c19.4-19.4,25-47.3,14.5-72.7-10.5-25.4-34.2-41.2-61.7-41.2"/>
    </g>
    <rect class="st0" x="300" y="314.7" width="180.6" height="44.5"/>
    <path class="st0" d="M347.1,70h57.7l-85.1,86.3c-19.4,19.4-25,47.3-14.5,72.7,10.5,25.4,34.2,41.2,61.7,41.2h113.6v-44.5h-113.6c-13.8,0-19.2-10.5-20.5-13.7-1.3-3.2-4.9-14.5,4.9-24.3l84.8-86.1v57.3h44.5V25.5h-133.5v44.5h0Z"/>
    <rect class="st2" x="634.9" y="25.5" width="57.2" height="236.8"/>
    <polygon class="st2" points="929.4 25.5 929.4 262.3 880.9 262.3 786.6 125.6 785.1 125.6 785.1 262.3 727.9 262.3 727.9 25.5 777.2 25.5 870.3 161.9 872.3 161.9 872.3 25.5 929.4 25.5"/>
    <path class="st2" d="M1022.5,213.5h28.1c13.3,0,24.5-2.3,33.7-6.8,9.2-4.5,16.2-11.9,20.9-22.1,4.7-10.2,7.1-23.8,7.1-40.9s-2.4-30.6-7.2-40.7c-4.8-10.1-11.8-17.5-21.1-22-9.3-4.5-20.7-6.8-34.3-6.8h-27.3v139.2h0ZM1052.8,262.3h-87.5V25.5h87.4c24.1,0,44.9,4.7,62.4,14.2,17.5,9.4,30.9,23,40.4,40.7,9.5,17.7,14.2,38.8,14.2,63.4s-4.7,45.9-14.2,63.6c-9.4,17.7-22.9,31.3-40.4,40.7-17.5,9.4-38.3,14.2-62.3,14.2"/>
    <rect class="st2" x="1202.9" y="25.5" width="57.2" height="236.8"/>
    <g>
      <path class="st2" d="M1510.9,111.3h-57.8c-.8-5.9-2.4-11.3-4.7-16.1-2.4-4.8-5.6-8.9-9.5-12.3-3.9-3.4-8.6-6-13.9-7.8-5.4-1.8-11.3-2.7-17.7-2.7-11.5,0-21.4,2.8-29.6,8.4-8.3,5.6-14.6,13.8-19.1,24.4-4.4,10.6-6.7,23.5-6.7,38.6s2.3,28.9,6.8,39.5,10.9,18.6,19.1,23.9c8.2,5.4,17.9,8,29.2,8s12.1-.8,17.3-2.4,9.8-4,13.8-7.1c4-3.1,7.2-6.9,9.8-11.4,2.6-4.5,4.4-9.6,5.4-15.3l57.8.4c-1,10.5-4,20.8-9.1,31-5,10.2-12,19.4-20.7,27.8-8.8,8.4-19.5,15-32.1,19.9-12.6,4.9-27,7.4-43.3,7.4s-40.6-4.7-57.5-14.2c-16.9-9.4-30.3-23.2-40.1-41.3-9.8-18.1-14.7-40.1-14.7-66.1s5-48.1,14.9-66.2,23.4-31.9,40.4-41.3c17-9.4,36-14.1,57-14.1s27.6,2,39.8,6c12.2,4,22.9,9.8,32.1,17.3,9.2,7.6,16.8,16.9,22.5,27.9,5.8,11,9.4,23.6,10.7,37.8"/>
      <path class="st2" d="M1708.5,143.9c0-15.4-2.2-28.4-6.5-39.1-4.4-10.6-10.6-18.7-18.7-24.2-8.1-5.5-17.9-8.2-29.3-8.2s-21.1,2.7-29.3,8.2c-8.2,5.5-14.4,13.5-18.8,24.2s-6.5,23.7-6.5,39.1,2.2,28.4,6.5,39.1c4.4,10.6,10.6,18.7,18.8,24.2,8.2,5.5,17.9,8.2,29.3,8.2s21.2-2.7,29.3-8.2c8.1-5.5,14.4-13.5,18.7-24.2,4.4-10.6,6.5-23.7,6.5-39.1M1767,143.9c0,26.1-5,48.1-15,66.2-10,18.1-23.6,31.9-40.6,41.3-17.1,9.4-36.2,14.1-57.4,14.1s-40.4-4.7-57.5-14.2c-17-9.5-30.5-23.3-40.5-41.3-10-18.1-15-40.1-15-66.1s5-48.1,15-66.2c10-18.1,23.5-31.9,40.5-41.3,17-9.4,36.2-14.1,57.5-14.1s40.3,4.7,57.4,14.1,30.6,23.2,40.6,41.3c10,18.1,15,40.2,15,66.2"/>
      <path class="st2" d="M1965.2,143.9c0-15.4-2.2-28.4-6.5-39.1-4.4-10.6-10.6-18.7-18.7-24.2-8.1-5.5-17.9-8.2-29.3-8.2s-21.1,2.7-29.3,8.2c-8.2,5.5-14.4,13.5-18.8,24.2s-6.5,23.7-6.5,39.1,2.2,28.4,6.5,39.1c4.4,10.6,10.6,18.7,18.8,24.2,8.2,5.5,17.9,8.2,29.3,8.2s21.2-2.7,29.3-8.2c8.1-5.5,14.4-13.5,18.7-24.2,4.4-10.6,6.5-23.7,6.5-39.1M2023.7,143.9c0,26.1-5,48.1-15,66.2-10,18.1-23.6,31.9-40.6,41.3-17.1,9.4-36.2,14.1-57.4,14.1s-40.4-4.7-57.5-14.2c-17-9.5-30.5-23.3-40.5-41.3-10-18.1-15-40.1-15-66.1s5-48.1,15-66.2c10-18.1,23.5-31.9,40.5-41.3,17-9.4,36.2-14.1,57.5-14.1s40.3,4.7,57.4,14.1c17.1,9.4,30.6,23.2,40.6,41.3,10,18.1,15,40.2,15,66.2"/>
      <path class="st2" d="M959.9,473.9h22.7l-11.4-27.8-11.4,27.8ZM1185.1,467.1v-.2c0-14.7-10.8-26.9-25.9-26.9s-25.7,12-25.7,26.7v.2c0,14.7,10.8,26.9,25.9,26.9s25.7-12,25.7-26.7M1289,467.1v-.2c0-14.7-10.8-26.9-25.9-26.9s-25.7,12-25.7,26.7v.2c0,14.7,10.8,26.9,25.9,26.9s25.7-12,25.7-26.7M1377.4,454.3v-.2c0-8.4-5.9-13-15.3-13h-14.6v26.2h14.9c9.4,0,14.9-5.6,14.9-13M1396.5,453.9c0,19.8-15.4,30.1-34.6,30.1h-14.3v25.7h-18.8v-85.6h35c20.4,0,32.8,12.1,32.8,29.6v.2h0ZM1308.7,466.9c0,24.3-19.2,44.3-45.6,44.3s-45.4-19.7-45.4-44v-.2c0-24.3,19.2-44.3,45.6-44.3s45.4,19.7,45.4,44v.2h0ZM1204.8,466.9c0,24.3-19.2,44.3-45.6,44.3s-45.4-19.7-45.4-44v-.2c0-24.3,19.2-44.3,45.6-44.3s45.4,19.7,45.4,44v.2h0ZM1045.6,466.6v.2c0,14.7,10.1,26.9,24.8,26.9s15.8-3.9,22.5-10l12,12.1c-8.8,9.4-18.6,15.3-35.1,15.3-25.2,0-43.9-19.5-43.9-44v-.2c0-24.3,18.3-44.3,44.6-44.3s25.8,5.4,33.8,13.2l-12,13.8c-6.6-6-13.3-9.6-21.9-9.6-14.4,0-24.8,12-24.8,26.7M1016.8,509.7h-19.7l-7.8-19.2h-36.2l-7.8,19.2h-19.2l36.7-86.2h17.4l36.7,86.2h0ZM913.6,497.6c-8.8,7.5-20.9,13.6-36.6,13.6-26.7,0-45-18.7-45-44v-.2c0-24.3,19-44.3,44.9-44.3s24.7,4.2,33.6,11.7l-11.9,14.3c-6.6-5.5-12.5-8.7-22.4-8.7s-24.6,12.1-24.6,26.7v.2c0,15.7,10.8,27.2,25.9,27.2s13-1.7,17.7-5.1v-12.2h-25.6v-16.3h43.8v37.2h0ZM813,509.7h-129.8v-85.6h18.8v69.2h111v16.5ZM811.7,442.2h-64v-1.4h0v-16h0v-.8h64v18.2ZM747.7,459.6v-1.4h62.4v18.2h-62.4v-.7h0v-16h0ZM1444.8,374.3h-809.9v185.2h809.9v-185.2Z"/>
    </g>
  </g>
  <g>
    <path class="st1" d="M1498.7,509v-83.8h38.3c6.5,0,12,.7,16.3,2.2,4.3,1.5,7.6,3.8,9.9,7,2.2,3.2,3.3,7.4,3.3,12.6s-1,9.1-3.1,12.1c-2,3.1-5.5,5.2-10.2,6.6,5.7,1.3,9.8,3.6,12.2,6.9s3.6,7.8,3.6,13.3c0,8.4-2.6,14.3-7.9,17.8s-13.3,5.3-24.1,5.3h-38.3,0ZM1509.5,461.3h25.9c7.4,0,12.6-1,15.6-3s4.5-5.5,4.5-10.5-1.5-8.5-4.5-10.5c-3-2-8.2-3-15.6-3h-25.9v26.9ZM1509.5,499.7h25.9c5.6,0,10-.5,13.3-1.5s5.6-2.6,7.1-4.7c1.5-2.1,2.2-5,2.2-8.5s-.7-6.4-2.2-8.5c-1.5-2.2-3.8-3.7-7.1-4.7-3.3-1-7.7-1.4-13.3-1.4h-25.9v29.4Z"/>
    <path class="st1" d="M1585.8,509v-83.8h57.2v9.3h-46.4v26.9h42.7v9h-42.7v29.4h46.4v9.3h-57.2Z"/>
    <path class="st1" d="M1681.9,509v-74.3h-26.4v-9.5h63.4v9.5h-26.2v74.3h-10.8Z"/>
    <path class="st1" d="M1705.7,509l34.4-83.8h11.8l34.4,83.8h-11.7l-7.3-18.3h-42.8l-7.1,18.3h-11.7,0ZM1728.1,481.6h35.6l-17.8-45.1-17.8,45.1h0Z"/>
    <path class="st1" d="M1848.3,509v-71.9l-19.2,10.5-4.5-8.5,26.2-13.9h8.2v83.8h-10.7,0Z"/>
    <path class="st1" d="M1885,509.7c-1.9,0-3.5-.6-4.6-1.8-1.2-1.2-1.8-2.6-1.8-4.3s.6-3.2,1.8-4.4c1.2-1.2,2.7-1.8,4.6-1.8s3.5.6,4.6,1.8c1.2,1.2,1.8,2.6,1.8,4.4s-.6,3.1-1.8,4.3c-1.2,1.2-2.7,1.8-4.6,1.8Z"/>
    <path class="st1" d="M1936.7,510.2c-4.4,0-8.4-.4-11.8-1.2-3.4-.8-6.5-2-9.4-3.8-2.8-1.7-5.5-3.9-8.2-6.5l4.5-7.7c4,3.7,8,6.3,11.8,7.8,3.8,1.5,7.8,2.3,11.8,2.3,6.5,0,11.6-1.7,15.3-5,3.7-3.3,5.5-8,5.5-13.9s-1.8-10.7-5.5-14.1c-3.7-3.3-8.8-5-15.3-5s-8,.9-11,2.6c-3,1.7-5.1,4.2-6.2,7.6l-9.3-1.8,8.4-47.8h43.7v8.9h-35.4l-4.9,27c2-1.7,4.4-2.9,7.3-3.8,2.8-.8,5.9-1.3,9.2-1.3,6.4,0,11.8,1.2,16.3,3.5,4.5,2.3,7.9,5.6,10.3,9.7s3.6,8.8,3.6,14.2-1.2,10.1-3.7,14.4c-2.5,4.2-6,7.6-10.6,10-4.6,2.5-10,3.7-16.3,3.7h0Z"/>
  </g>
</svg>